<svg xmlns="http://www.w3.org/2000/svg" width="50" height="50" fill="none"><g clip-path="url(#A)"><path d="M24.146 31.944L17.441 20.75c-.138-.239-.211-.511-.212-.787s.071-.548.208-.788.334-.44.573-.581.509-.216.785-.219h13.411c.276.003.547.078.785.219s.436.34.573.581.209.512.208.788-.074.548-.212.787l-6.705 11.194a1.58 1.58 0 0 1-.577.559c-.237.134-.505.204-.777.204s-.54-.07-.777-.204-.436-.326-.577-.559h0z" stroke="#939db8" stroke-width="4" stroke-linejoin="round"/><path d="M22.583.067c-8.646.89-16.245 6.173-20.04 13.92-.91 1.839-1.34 3.013-1.819 4.891C.127 21.226 0 22.351 0 25.002s.127 3.776.724 6.124c.479 1.878.91 3.052 1.809 4.891a25.16 25.16 0 0 0 11.443 11.435c2.426 1.194 4.851 1.947 7.531 2.357 1.653.254 5.291.254 6.944 0 5.497-.831 10.309-3.257 14.182-7.151 4.294-4.304 6.739-9.528 7.296-15.603a28.72 28.72 0 0 0-.157-5.576A25.25 25.25 0 0 0 38.868 4.214C35.719 2.101 32.364.8 28.501.204 27.268.018 23.835-.07 22.583.067zm4.108 4.979c3.091.293 5.858 1.184 8.441 2.719 5.164 3.072 8.607 8.129 9.624 14.106.293 1.731.293 4.529 0 6.261-1.467 8.638-8.02 15.182-16.646 16.649-1.623.274-4.44.294-6.015.049-4.382-.704-8.177-2.631-11.248-5.693C4.421 32.72 3.11 22.869 7.639 15.034c1.565-2.7 4.059-5.331 6.553-6.887 3.844-2.416 8.226-3.502 12.5-3.101z" fill="#939db8"/></g><defs><clipPath id="A"><path fill="#939db8" d="M0 0h50v50H0z"/></clipPath></defs></svg>