<svg xmlns="http://www.w3.org/2000/svg" width="682.667" height="682.667" viewBox="0 0 512 512" preserveAspectRatio="xMidYMid meet" xmlns:v="https://vecta.io/nano"><path d="M124.3 10.4c-5.1 2.4-10.4 8.2-11.9 13-.4 1.1-4.3 42.8-8.8 92.6l-8.1 90.5-26.5.5c-22.5.4-27 .8-29.6 2.2-3.9 2.1-8.2 7.1-9.2 10.6-.4 1.5-.7 52-.7 112.2v109.5l2.9 6.3c4.7 10.2 12.7 15.8 27.6 19.4 3.1.8 41 1.3 121 1.5l116.5.4 8.2 8.1c7.6 7.6 8.4 8.1 13.2 8.6 6.3.6 9.2-.2 12.9-3.3l2.9-2.4 5.9 2.4c5.5 2.2 5.9 2.6 6.6 6.4.9 5.6 3.2 9.6 7 12.3 3.2 2.2 4 2.3 22 2.3 17.3 0 18.9-.2 21.4-2.1 4.4-3.2 6.6-6.8 7.1-11.7.5-4.4.6-4.5 6.6-6.9l6.2-2.6 3.1 2.5c4.7 3.5 9.5 4.6 14.6 3.2 3.4-.9 6.6-3.4 15.5-12.2 12.1-11.9 14.3-15.2 14.3-21.7 0-4.4-1.1-7.2-4.2-10.7-2-2.1-2-2.2.5-8.5 2.6-6.3 2.6-6.3 7.1-6.8 5.8-.7 9.5-3.4 12.4-9 2-4 2.2-5.8 2.2-19.5s-.2-15.5-2.2-19.5c-2.9-5.6-6.6-8.3-12.4-9-4.5-.5-4.5-.5-7.1-6.8-2.5-6.3-2.5-6.4-.5-8.5 3.1-3.5 4.2-6.3 4.2-10.7 0-5.6-2.1-9.7-8-15.5l-5-4.9v-46.7c0-48.3-.2-50.4-4.3-56-3.8-5.3-9.2-7.3-20.4-7.7-9.6-.4-10.3-.6-10.3-2.5 0-1.1 2.7-32.2 6-69 5.1-56.1 5.9-67.5 4.9-70.6-.9-2.5-6.4-8.8-18.8-21.3l-17.6-17.7-5.5-.6-89.5-8L180 12c-50.9-4.6-49.6-4.5-55.7-1.6zM245.9 34l116 10.6 4.4.6-.7 5.1c-.3 2.9-.9 10.6-1.2 17.2-.5 10.9-.4 12.3 1.5 15.2 3.4 5.4 6.9 6.5 26.4 8.3 9.8 1 18 2 18.3 2.3s-1.7 26.1-4.5 57.4l-5.1 59v2.3h-54.2c-53.3 0-54.2 0-58.6 2.1-5.2 2.6-6.1 3.9-22.7 33.6L253.6 269h-73.8-73.9l.6-6.8c.4-3.7 5.2-57.9 10.9-120.4l12-115.7c1.1-1.2 2.6-2.1 3.4-2.1.9 0 51.8 4.5 113.1 10zm153 27c7.9 8.3 14.2 15.3 13.9 15.5-.2.2-6.9-.3-14.8-1L381.6 74c-1.7 0-1.8-.6-1.2-8.8 1.2-15 1.8-19.2 3-19.2.6 0 7.6 6.8 15.5 15zM93.5 228.7l-3.5 39c0 .9-1.6 1.3-4.5 1.3-8.6 0-15.3 4.9-17.5 12.8-.6 2.4-1 32.8-1 87.1v83.3l-3.7-.7c-10.7-1.9-16.8-7.3-17.8-15.7-.9-7.6-.2-210 .8-211.6.6-.9 6.6-1.2 24.3-1.2h23.5l-.6 5.7zm340.6.3c1.8 1 1.9 2.5 1.9 40.5V309h-5.3c-4.4 0-6.2.6-9.5 3l-4.1 2.9-5.9-2.6c-5.8-2.5-6-2.6-6.5-7-.5-4.9-2.7-8.5-7.1-11.7-2.5-1.9-4.4-2.1-19.6-2.4-15.1-.3-17.4-.1-21.4 1.6-5.2 2.4-7.5 5.5-9.1 12.4-1.1 4.9-1.2 5.1-7 7.4-5.7 2.4-5.9 2.4-7.9.5-5-4.5-12.7-5.7-18.2-2.8-1.6.9-8.1 6.9-14.6 13.4-9.5 9.6-11.7 12.5-12.3 15.6-.9 4.7.7 10.6 3.9 14.4l2.3 2.8-2.7 6.1c-2.7 6-2.9 6.1-7.3 6.6-2.5.3-5.9 1.5-7.5 2.6-5.4 3.9-6.2 7.2-6.2 25.9 0 14.5.3 17.3 1.9 20.3 2.5 4.7 7.5 8 12.2 8 3.8 0 4 .2 6.7 6.2l2.8 6.3-2.8 3.9c-1.5 2.1-3 5.4-3.4 7.2l-.6 3.4H184.9 83l.2-83.8.3-83.7 89.2-.5c87.6-.5 89.3-.5 91.1-2.5 1.1-1.1 7.6-12.4 14.7-25l14.7-26.3 2-3.2h68.4l70.5 1zM389 312.1c0 5 1.2 8.7 3.4 10.1.6.4 3.4 1.5 6.1 2.4 2.8.9 8.1 3.2 11.8 5 3.7 1.9 7.9 3.4 9.3 3.4 1.5 0 4.2-1.6 7-4.2l4.5-4.2 8.9 8.9 8.9 8.8-4 4.5c-4.8 5.5-4.9 8.2-1 16.1 1.7 3.2 3.9 8.8 5.1 12.5 2.6 7.8 5 9.6 13 9.6h5v12.5V410h-4.4c-6.5 0-10.2 1.7-12 5.5-.9 1.8-1.6 3.8-1.6 4.5s-1.8 5-4 9.7c-5.2 11.2-5.2 13.5.2 18.5l4.2 3.9-9.1 9.1-9.2 9.2-4.5-4.2c-5.2-4.8-8.1-5.3-13.1-2.2-1.7 1.1-6.3 3.1-10.1 4.5-11.7 4.3-12.1 4.6-13.3 7.1-.6 1.4-1.1 4.7-1.1 7.4v5h-13-13v-5.8c0-7.1-1.5-9.5-7.2-11.1-2.4-.7-8.2-3.1-13-5.3-10-4.7-12.1-4.6-17 .7-1.7 1.9-3.6 3.5-4.2 3.5s-5.1-4-9.9-8.8l-8.7-8.8 3.9-3.8c5.6-5.5 5.8-7.4 1.7-15.9-1.8-4-4.2-9.8-5.2-13-2.4-7.9-4.2-9.2-11.5-9l-5.9.1V398v-12.8l6-.4c7-.5 9.2-2.1 10.9-8.1.7-2.3 3.1-8.1 5.3-12.9 4.5-10.1 4.4-11.4-1.3-17.3l-3.9-4.1 8.9-8.8 8.9-8.9 4.8 4.1c2.6 2.3 5.7 4.2 6.9 4.2s6-1.8 10.6-3.9c4.6-2.2 10.3-4.4 12.6-5 5.6-1.5 7.3-4.2 7.3-11.3V307h13 13v5.1zm-217.5-209c-5.1 2.9-6.1 9-2.1 12.8 2.2 2.1 6.2 2.6 90.1 10.1 77.7 7 88.2 7.7 90.6 6.5 4.5-2.4 5.3-7.8 1.7-11.9-2.6-2.9 8-1.8-113.8-12.6l-60.5-5.5c-2.2-.2-4.9 0-6 .6zm-5.9 47c-3.5 2.8-3.6 8-.1 11.4 1.3 1.4 3 2.5 3.7 2.5s40.2 3.4 87.7 7.7c77.9 6.9 86.6 7.5 89 6.2 5.1-2.9 5.4-10.7.3-13.2-1.5-.8-5.8-1.7-9.7-2L228.1 153l-57.6-5c-1.2 0-3.4.9-4.9 2.1zM360 348.3c-24.1 8.2-39.2 33-35.1 57.4 3.3 19.1 17.7 35.7 36 41.4 9.2 2.8 22.6 2.8 31.2-.1 21.4-7.2 35.9-27.1 35.9-49.3 0-23.3-15.3-43.5-37.9-50.1-8.2-2.4-22-2.1-30.1.7zm31.2 16.6c7.5 3.6 13.4 9.4 17 16.9 3 6 3.3 7.5 3.3 15.7 0 7.7-.4 9.8-2.7 14.7-11.9 25.5-46.4 28.6-62.2 5.5-12.9-18.9-5.2-44.4 16.2-53.4 7.6-3.2 21.1-2.9 28.4.6z"/></svg>