<svg xmlns="http://www.w3.org/2000/svg" xmlns:xlink="http://www.w3.org/1999/xlink" width="682.667" height="682.667" viewBox="0 0 512 512" preserveAspectRatio="xMidYMid meet"><use xlink:href="#B"/><path fill='#939db8' d="M84.7 68.4c-8 2.9-13.4 8.3-16.3 16.3-1.8 5.1-1.7 8.8.2 15.4 1.5 5.1 3.4 7.2 40.2 44.2 42.6 42.7 43.9 43.7 54.6 43.7 14.2-.1 24.5-10.4 24.6-24.6 0-10.7-1-12-43.7-54.6-37-36.8-39.1-38.7-44.2-40.2-6.6-1.9-10.3-2-15.4-.2zm326.8.2c-4.5 1.4-8.5 5.1-43.8 40.2-42.7 42.6-43.7 43.9-43.7 54.6 0 7.4 2.3 12.7 7.6 17.8 5.1 4.9 10 6.8 17.2 6.8 10.5 0 11.9-1.2 54.4-43.7 38-38.2 38.7-38.9 40.3-44.7 5.7-19.8-12.2-37.2-32-31zM16.1 232.7C7.3 235.8 0 246.3 0 256c0 6 3 13 7.5 17.5 7.5 7.6 6.8 7.5 67.5 7.5s60 .1 67.5-7.5c9.8-9.8 9.8-25.2 0-35-7.5-7.6-6.7-7.5-67.9-7.4-46.3 0-54.7.3-58.5 1.6zm362 0c-8.8 3.1-16.1 13.6-16.1 23.3 0 6 3 13 7.5 17.5 7.5 7.6 6.8 7.5 67.5 7.5s60 .1 67.5-7.5c9.8-9.8 9.8-25.2 0-35-7.5-7.6-6.7-7.5-67.9-7.4-46.3 0-54.7.3-58.5 1.6zm-225.7 93.8c-7 3.5-79.4 76-82.3 82.5-2.7 5.8-2.7 15-.2 20.5 2.3 5 8.4 10.9 13.3 13 5.3 2.1 14.3 1.9 19.8-.6 6.5-2.9 79-75.3 82.5-82.3 3.1-6.2 3.4-15.1.6-21.1-5.7-12.7-21.2-18.2-33.7-12zm185.8 1.1c-11.6 5.8-16.6 20.3-11.1 32.4 2.9 6.5 74.3 78 81.3 81.5 9.1 4.6 19.9 3 27.4-3.8 5.8-5.4 8.2-10.6 8.2-18.3 0-10.7-1.1-12.1-42.2-53.1-27.8-27.7-38.4-37.7-41.8-39.2-6.6-3-15.2-2.8-21.8.5z"/><use xlink:href="#B" y="362"/><defs ><path fill='#939db8' id="B" d="M247.1 1.7c-2.4.9-6.3 3.5-8.6 5.8-7.6 7.5-7.5 6.8-7.5 67.5s-.1 60 7.5 67.5c9.8 9.8 25.2 9.8 35 0 7.6-7.5 7.5-6.8 7.5-67.5s.1-60-7.5-67.5c-6.9-7-16.9-9.1-26.4-5.8z"/></defs></svg>