<svg xmlns="http://www.w3.org/2000/svg" width="682.667" height="682.667" viewBox="0 0 512 512" preserveAspectRatio="xMidYMid meet" xmlns:v="https://vecta.io/nano"><path d="M248 .6c-10.6 1.9-18.3 5.1-26.6 11-10.1 7.1-16.5 16-22 30.4-3.9 10.2-9.4 15.7-19.4 19.5-9 3.3-15.7 7.2-22.7 13.1l-5.1 4.4h-29.9c-31.2 0-34.2.4-42.9 4.8-9.1 4.7-17.3 16.3-19.4 27.1-1.4 7.3-1.4 361.8 0 369.1 2.9 15.3 15.7 28.1 31 31 7.2 1.4 322.8 1.4 330 0 15.3-2.9 28.1-15.7 31-31 1.4-7.3 1.4-361.8 0-369.1-2.1-10.8-10.3-22.4-19.4-27.1-8.7-4.4-11.7-4.8-43-4.8h-29.9l-5.1-4.3c-7.3-6.2-12.2-9.1-21.7-12.8-11-4.2-16.3-9.5-20.3-19.9-8.1-21.3-20.3-33.2-40.6-39.6-4.7-1.5-19.7-2.6-24-1.8zM268.6 22c11.5 4 20.2 12.6 24.5 24.5 7 19.1 15.5 27.5 34.4 34.4 11.5 4.2 20.6 13.2 24.6 24.5 1.5 4.4 1.9 8.2 1.9 19.1V138h-98-98v-13.5c0-10.9.4-14.7 1.9-19.1 4-11.3 13-20.3 24.5-24.5 18.5-6.6 27.5-15.4 34-33 4.7-13.1 13-21.7 24.6-25.8 7.5-2.7 17.9-2.7 25.6-.1zM141 98.3c0 .1-.7 3.4-1.5 7.2-1 5-1.5 13.5-1.5 29.7V158h118 118v-22.8c0-16.2-.5-24.7-1.5-29.7l-1.5-7.3c0-.2 10.7-.2 23.8 0l23.9.3 4.8 3c3.2 2 5.6 4.5 7.2 7.4l2.3 4.4-.2 183.2-.3 183.2-2.7 3.6c-1.6 1.9-4.3 4.6-6 5.9l-3.3 2.3H256 91.5l-3.3-2.3c-1.7-1.3-4.4-4-6-5.9l-2.7-3.6-.3-183-.2-183 2.1-4.4c2.4-5 8.1-9.3 13.7-10.4 3.3-.6 46.2-1.2 46.2-.6zm109.3-52.4c-12.7 5.9-10.3 25.1 3.3 27.7 4.7.9 11.8-1.9 14.5-5.8 8.7-12.1-4.3-28.1-17.8-21.9zM278.5 299l-59 59-26.2-26.2-26.3-26.3-6.5 6.5c-3.6 3.5-6.5 6.9-6.5 7.5 0 1.3 64.2 65.5 65.5 65.5S351 254.8 351 253.5c0-1-12.1-13.5-13-13.5-.3 0-27.1 26.5-59.5 59z"/></svg>