<svg xmlns="http://www.w3.org/2000/svg" width="682.667" height="682.667" viewBox="0 0 512 512" preserveAspectRatio="xMidYMid meet"><path fill="#939db8" d="M231.5 1.1C143.1 10.2 65.4 64.2 26.6 143.4c-9.3 18.8-13.7 30.8-18.6 50C1.9 217.4.6 228.9.6 256s1.3 38.6 7.4 62.6c4.9 19.2 9.3 31.2 18.5 50 24.8 50.5 66.3 92 117 116.9 24.8 12.2 49.6 19.9 77 24.1 16.9 2.6 54.1 2.6 71 0 56.2-8.5 105.4-33.3 145-73.1 43.9-44 68.9-97.4 74.6-159.5 1.4-15.8.7-41.3-1.6-57-10.6-71.8-51-135.8-111.5-176.5-32.2-21.6-66.5-34.9-106-41-12.6-1.9-47.7-2.8-60.5-1.4zm42 50.9c31.6 3 59.9 12.1 86.3 27.8 52.8 31.4 88 83.1 98.4 144.2 3 17.7 3 46.3 0 64-15 88.3-82 155.2-170.2 170.2-16.6 2.8-45.4 3-61.5.5-44.8-7.2-83.6-26.9-115-58.2-65.7-65.6-79.1-166.3-32.8-246.4 16-27.6 41.5-54.5 67-70.4C185 59 229.8 47.9 273.5 52zm-24.7 51.4c-7.6 2.1-12.3 5.8-15.5 12.3l-2.8 5.8V190c0 55.7.3 69.2 1.4 72.5 1.1 3.1 9.3 11.9 37.8 40.6 40.5 40.7 42.3 42.2 52.8 42.2 19.2-.1 31.8-21.4 22.1-37.6-1.3-2.3-16-17.7-32.5-34.2l-30.1-30v-57.6c0-34.9-.4-59.8-1-63-.6-3-2.3-7.4-3.8-9.9-5-8.1-18.1-12.5-28.4-9.6z"/></svg>